<?xml version="1.0" encoding="UTF-8" standalone="no"?>
<!-- Created with Inkscape (http://www.inkscape.org/) -->

<svg
   width="611.94202"
   height="320"
   viewBox="0 0 161.90965 84.666669"
   version="1.1"
   id="svg15064"
   inkscape:version="1.1.1 (3bf5ae0d25, 2021-09-20)"
   sodipodi:docname="logo.svg"
   xmlns:inkscape="http://www.inkscape.org/namespaces/inkscape"
   xmlns:sodipodi="http://sodipodi.sourceforge.net/DTD/sodipodi-0.dtd"
   xmlns="http://www.w3.org/2000/svg"
   xmlns:svg="http://www.w3.org/2000/svg">
  <sodipodi:namedview
     id="namedview15066"
     pagecolor="#ffffff"
     bordercolor="#666666"
     borderopacity="1.0"
     inkscape:pageshadow="2"
     inkscape:pageopacity="0.0"
     inkscape:pagecheckerboard="0"
     inkscape:document-units="mm"
     showgrid="false"
     units="px"
     inkscape:zoom="0.3884119"
     inkscape:cx="493.0333"
     inkscape:cy="299.93932"
     inkscape:window-width="1366"
     inkscape:window-height="705"
     inkscape:window-x="-8"
     inkscape:window-y="-8"
     inkscape:window-maximized="1"
     inkscape:current-layer="layer1" />
  <defs
     id="defs15061" />
  <g
     inkscape:label="Capa 1"
     inkscape:groupmode="layer"
     id="layer1">
    <g
       id="g15179"
       transform="translate(-108.50678,-186.28136)">
      <rect
         style="fill:#2d2d2d;stroke:none;stroke-width:4.39841;-inkscape-stroke:none;stop-color:#000000"
         id="rect7108"
         width="161.90976"
         height="84.666664"
         x="108.50673"
         y="186.28136"
         inkscape:export-filename="E:\ED\hydro\public\logo.png"
         inkscape:export-xdpi="642.57153"
         inkscape:export-ydpi="642.57153" />
      <path
         style="fill:#ffffff;stroke:none;stroke-width:4.00473;-inkscape-stroke:none;stop-color:#000000"
         d="m 142.64575,233.54049 v 26.82428 h 16.87759 v -5.29169 h -11.5859 v -5.27101 h 11.5859 v -5.29168 h -11.5859 v -5.67821 h 11.5859 v -5.29169 z"
         id="path10258"
         sodipodi:nodetypes="ccccccccccccc"
         inkscape:export-filename="E:\ED\hydro\public\logo.png"
         inkscape:export-xdpi="642.57153"
         inkscape:export-ydpi="642.57153" />
      <path
         style="fill:#ffffff;stroke:none;stroke-width:4.00473;-inkscape-stroke:none;stop-color:#000000"
         d="m 119.08955,233.54049 v 5.29169 h 6.48645 v 21.53259 h 5.29165 v -21.53259 h 6.48645 v -5.29169 z"
         id="path9917"
         inkscape:export-filename="E:\ED\hydro\public\logo.png"
         inkscape:export-xdpi="642.57153"
         inkscape:export-ydpi="642.57153" />
      <path
         id="rect7942"
         style="fill:#ffffff;stroke:none;stroke-width:2.87435;-inkscape-stroke:none;stop-color:#000000"
         d="m 119.08955,196.86467 v 5.29165 h 6.76341 v 15.83162 h -6.76341 v 5.29169 h 18.26455 v -5.29169 h -6.20945 v -15.83162 h 6.76341 v -5.29165 z"
         sodipodi:nodetypes="ccccccccccccc"
         inkscape:export-filename="E:\ED\hydro\public\logo.png"
         inkscape:export-xdpi="642.57153"
         inkscape:export-ydpi="642.57153" />
      <path
         id="rect7946"
         style="fill:#ffffff;stroke:none;stroke-width:3.40553;-inkscape-stroke:none;stop-color:#000000"
         d="m 142.64575,196.86467 v 26.41496 h 5.29169 v -14.56866 c 1.533,4.94929 7.68121,9.26157 7.68121,14.56866 h 5.29165 v -26.41496 h -5.29165 v 14.56658 c -1.5306,-4.94833 -7.68121,-9.26157 -7.68121,-14.56658 z"
         sodipodi:nodetypes="ccccccccccc"
         inkscape:export-filename="E:\ED\hydro\public\logo.png"
         inkscape:export-xdpi="642.57153"
         inkscape:export-ydpi="642.57153" />
      <path
         id="rect7954"
         style="fill:#ffff3e;stroke:none;stroke-width:7.4671;-inkscape-stroke:none;stop-color:#000000"
         d="m 169.06279,196.86467 v 42.33339 c 0.024,7.53769 4.05549,14.49366 10.58338,18.26247 3.21108,1.88168 6.86157,2.88344 10.58334,2.90424 3.71648,-0.003 7.36661,-0.98492 10.58334,-2.84636 6.54577,-3.77917 10.57957,-10.76198 10.58337,-18.32035 v -42.33339 h -10.58337 v 42.33339 c 0,5.84501 -4.73833,10.58333 -10.58334,10.58333 -5.84501,0 -10.58334,-4.73832 -10.58334,-10.58333 v -42.33339 z"
         sodipodi:nodetypes="cccccccccsccc"
         inkscape:export-filename="E:\ED\hydro\public\logo.png"
         inkscape:export-xdpi="642.57153"
         inkscape:export-ydpi="642.57153" />
      <g
         id="g14802"
         transform="matrix(4.0000066,0,0,4.0000066,-333.15956,-170.6244)"
         inkscape:export-filename="E:\ED\hydro\public\logo.png"
         inkscape:export-xdpi="642.57153"
         inkscape:export-ydpi="642.57153">
        <path
           id="path14798"
           style="fill:#ffff3e;fill-opacity:1;stroke:none;stroke-width:1.86677;-inkscape-stroke:none;stop-color:#000000"
           d="m 125.5554,91.872118 v 10.583262 c 0.003,0.94614 0.2589,1.85545 0.7192,2.64582 0.45648,0.78381 1.11405,1.4506 1.92662,1.91974 0.80278,0.47042 1.71539,0.72087 2.64583,0.72608 h 5.29164 V 91.872118 h -2.64582 V 105.1012 h -2.64582 c -1.46126,0 -2.64582,-1.18457 -2.64583,-2.64582 V 91.872118 Z"
           sodipodi:nodetypes="ccsccccccsscc" />
        <path
           id="path14800"
           style="fill:#dc0000;fill-opacity:1;stroke:none;stroke-width:7.05551;-inkscape-stroke:none;stop-color:#000000"
           d="m 522.42188,347.23242 v 60 h 10 v -0.084 c 15.70498,-1.11008 27.87994,-14.17191 27.88476,-29.91602 v -30 z m 10,10 h 17.88476 v 20 c -0.004,10.22422 -7.71787,18.79953 -17.88476,19.88086 v -39.76172 z"
           transform="scale(0.26458333)"
           sodipodi:nodetypes="ccccccccccccc" />
      </g>
    </g>
  </g>
</svg>
